<mxfile host="app.diagrams.net" agent="Mozilla/5.0 (Windows NT 10.0; Win64; x64) AppleWebKit/537.36 (KHTML, like Gecko) Chrome/135.0.0.0 Safari/537.36 Edg/135.0.0.0" version="26.1.0">
  <diagram name="PÃ¡gina-1" id="b3xxFb-RGqt2A3ZEpIzG">
    <mxGraphModel dx="1290" dy="611" grid="1" gridSize="10" guides="1" tooltips="1" connect="1" arrows="1" fold="1" page="1" pageScale="1" pageWidth="827" pageHeight="1169" math="0" shadow="0">
      <root>
        <mxCell id="0" />
        <mxCell id="1" parent="0" />
        <mxCell id="s-oVyR86zMquiQ0DpUxO-8" style="edgeStyle=orthogonalEdgeStyle;rounded=0;orthogonalLoop=1;jettySize=auto;html=1;exitX=0.25;exitY=1;exitDx=0;exitDy=0;entryX=0.5;entryY=0;entryDx=0;entryDy=0;" edge="1" parent="1" source="s-oVyR86zMquiQ0DpUxO-1" target="s-oVyR86zMquiQ0DpUxO-2">
          <mxGeometry relative="1" as="geometry" />
        </mxCell>
        <mxCell id="s-oVyR86zMquiQ0DpUxO-9" style="edgeStyle=orthogonalEdgeStyle;rounded=0;orthogonalLoop=1;jettySize=auto;html=1;exitX=0.75;exitY=1;exitDx=0;exitDy=0;entryX=0.5;entryY=0;entryDx=0;entryDy=0;" edge="1" parent="1" source="s-oVyR86zMquiQ0DpUxO-1" target="s-oVyR86zMquiQ0DpUxO-3">
          <mxGeometry relative="1" as="geometry" />
        </mxCell>
        <mxCell id="s-oVyR86zMquiQ0DpUxO-1" value="&lt;font style=&quot;font-size: 18px;&quot;&gt;App&lt;/font&gt;" style="rounded=0;whiteSpace=wrap;html=1;" vertex="1" parent="1">
          <mxGeometry x="380" width="120" height="60" as="geometry" />
        </mxCell>
        <mxCell id="s-oVyR86zMquiQ0DpUxO-6" style="edgeStyle=orthogonalEdgeStyle;rounded=0;orthogonalLoop=1;jettySize=auto;html=1;exitX=0.25;exitY=1;exitDx=0;exitDy=0;entryX=0.5;entryY=0;entryDx=0;entryDy=0;" edge="1" parent="1" source="s-oVyR86zMquiQ0DpUxO-2" target="s-oVyR86zMquiQ0DpUxO-4">
          <mxGeometry relative="1" as="geometry" />
        </mxCell>
        <mxCell id="s-oVyR86zMquiQ0DpUxO-7" style="edgeStyle=orthogonalEdgeStyle;rounded=0;orthogonalLoop=1;jettySize=auto;html=1;exitX=0.75;exitY=1;exitDx=0;exitDy=0;entryX=0.5;entryY=0;entryDx=0;entryDy=0;" edge="1" parent="1" source="s-oVyR86zMquiQ0DpUxO-2" target="s-oVyR86zMquiQ0DpUxO-5">
          <mxGeometry relative="1" as="geometry" />
        </mxCell>
        <mxCell id="s-oVyR86zMquiQ0DpUxO-2" value="&lt;font style=&quot;font-size: 18px;&quot;&gt;ContatoScreen&lt;/font&gt;" style="rounded=0;whiteSpace=wrap;html=1;" vertex="1" parent="1">
          <mxGeometry x="60" y="120" width="160" height="100" as="geometry" />
        </mxCell>
        <mxCell id="s-oVyR86zMquiQ0DpUxO-13" style="edgeStyle=orthogonalEdgeStyle;rounded=0;orthogonalLoop=1;jettySize=auto;html=1;exitX=0.25;exitY=1;exitDx=0;exitDy=0;entryX=0.5;entryY=0;entryDx=0;entryDy=0;" edge="1" parent="1" source="s-oVyR86zMquiQ0DpUxO-3" target="s-oVyR86zMquiQ0DpUxO-10">
          <mxGeometry relative="1" as="geometry" />
        </mxCell>
        <mxCell id="s-oVyR86zMquiQ0DpUxO-14" style="edgeStyle=orthogonalEdgeStyle;rounded=0;orthogonalLoop=1;jettySize=auto;html=1;exitX=0.75;exitY=1;exitDx=0;exitDy=0;entryX=0.5;entryY=0;entryDx=0;entryDy=0;" edge="1" parent="1" source="s-oVyR86zMquiQ0DpUxO-3" target="s-oVyR86zMquiQ0DpUxO-12">
          <mxGeometry relative="1" as="geometry" />
        </mxCell>
        <mxCell id="s-oVyR86zMquiQ0DpUxO-3" value="&lt;font style=&quot;font-size: 18px;&quot;&gt;CicloSocialScreen&lt;/font&gt;" style="rounded=0;whiteSpace=wrap;html=1;" vertex="1" parent="1">
          <mxGeometry x="630" y="120" width="160" height="100" as="geometry" />
        </mxCell>
        <mxCell id="s-oVyR86zMquiQ0DpUxO-4" value="Contato Formulario" style="rounded=0;whiteSpace=wrap;html=1;" vertex="1" parent="1">
          <mxGeometry y="260" width="120" height="60" as="geometry" />
        </mxCell>
        <mxCell id="s-oVyR86zMquiQ0DpUxO-5" value="Contato Listagem" style="rounded=0;whiteSpace=wrap;html=1;" vertex="1" parent="1">
          <mxGeometry x="160" y="260" width="120" height="60" as="geometry" />
        </mxCell>
        <mxCell id="s-oVyR86zMquiQ0DpUxO-10" value="CicloSocial Formulario" style="rounded=0;whiteSpace=wrap;html=1;" vertex="1" parent="1">
          <mxGeometry x="580" y="260" width="120" height="60" as="geometry" />
        </mxCell>
        <mxCell id="s-oVyR86zMquiQ0DpUxO-12" value="CicloSocial Listagem" style="rounded=0;whiteSpace=wrap;html=1;" vertex="1" parent="1">
          <mxGeometry x="730" y="260" width="120" height="60" as="geometry" />
        </mxCell>
        <mxCell id="s-oVyR86zMquiQ0DpUxO-15" value="lista, setLista&lt;div&gt;gravar&lt;/div&gt;" style="text;html=1;align=center;verticalAlign=middle;whiteSpace=wrap;rounded=0;" vertex="1" parent="1">
          <mxGeometry x="120" y="120" width="120" height="30" as="geometry" />
        </mxCell>
        <mxCell id="s-oVyR86zMquiQ0DpUxO-17" value="lista, setLista&lt;div&gt;gravar&lt;/div&gt;" style="text;html=1;align=center;verticalAlign=middle;whiteSpace=wrap;rounded=0;" vertex="1" parent="1">
          <mxGeometry x="690" y="120" width="120" height="30" as="geometry" />
        </mxCell>
      </root>
    </mxGraphModel>
  </diagram>
</mxfile>
